<?xml version="1.0" standalone="no"?>
<!DOCTYPE svg PUBLIC "-//W3C//DTD SVG 20010904//EN"
 "http://www.w3.org/TR/2001/REC-SVG-20010904/DTD/svg10.dtd">
<svg version="1.0" xmlns="http://www.w3.org/2000/svg"
 width="3480.000000pt" height="3080.000000pt" viewBox="0 0 3480.000000 3080.000000"
 preserveAspectRatio="xMidYMid meet">

<g transform="translate(0.000000,3080.000000) scale(0.100000,-0.100000)"
fill="#000000" stroke="none">
<path d="M16885 24244 c-33 -2 -145 -11 -250 -20 -1735 -143 -3365 -847 -4685
-2021 -140 -125 -476 -460 -605 -603 -590 -657 -1052 -1371 -1410 -2180 -304
-686 -505 -1420 -605 -2202 -27 -214 -28 -218 -56 -240 -191 -149 -491 -416
-684 -607 -668 -665 -1035 -1298 -1111 -1914 -18 -152 -7 -423 25 -573 165
-784 857 -1485 2041 -2069 385 -190 707 -322 1167 -480 l267 -91 102 -124
c407 -498 887 -959 1399 -1344 1230 -925 2628 -1457 4190 -1593 248 -21 984
-25 1225 -5 857 69 1598 238 2360 537 1500 588 2807 1635 3719 2978 690 1015
1131 2152 1306 3362 29 202 31 211 57 230 15 11 105 82 199 157 1057 846 1646
1652 1781 2433 24 142 24 454 -1 590 -118 650 -559 1217 -1354 1740 -565 371
-1343 721 -2185 981 l-188 58 -123 146 c-1304 1546 -3143 2549 -5136 2799
-352 45 -484 52 -940 55 -245 2 -472 2 -505 0z m740 -524 c1707 -78 3280 -697
4571 -1800 211 -181 468 -433 434 -427 -14 2 -149 30 -300 60 -1580 323 -3227
411 -4420 236 -74 -10 -208 -34 -298 -52 -129 -26 -161 -30 -157 -18 5 12 630
1033 674 1100 15 23 15 24 -6 13 -57 -31 -3169 -1834 -3175 -1841 -5 -4 600
-178 1342 -387 743 -209 1350 -376 1350 -371 0 5 -43 214 -95 464 -52 250 -95
460 -95 467 0 14 105 26 440 48 246 17 1241 17 1505 0 490 -31 883 -69 1260
-123 1030 -148 1954 -395 2801 -750 l190 -80 61 -98 c115 -183 216 -365 330
-590 62 -124 113 -229 113 -233 0 -4 -902 -8 -2005 -8 l-2005 0 0 -815 0 -815
810 0 810 0 0 -2310 0 -2310 820 0 820 0 0 2310 0 2310 643 -2 642 -3 17 -85
c49 -240 97 -619 118 -930 17 -240 14 -765 -5 -1015 -101 -1327 -525 -2553
-1259 -3645 -283 -421 -556 -751 -930 -1126 -381 -380 -722 -661 -1156 -951
-969 -647 -2098 -1064 -3250 -1202 -341 -41 -437 -46 -905 -46 -468 0 -564 5
-905 46 -1621 194 -3163 932 -4325 2071 l-180 176 100 -24 c558 -135 1297
-261 1950 -333 544 -61 871 -81 1425 -88 743 -10 1292 31 1799 133 96 19 175
33 177 31 2 -2 -151 -255 -341 -562 -189 -308 -342 -561 -340 -563 1 -1 721
413 1599 922 878 508 1590 926 1583 929 -34 13 -2689 758 -2691 755 -2 -1 39
-201 90 -443 51 -242 95 -454 99 -471 5 -31 4 -32 -37 -38 -299 -42 -1275 -61
-1798 -36 -1715 82 -3232 429 -4521 1033 l-96 45 -75 128 c-138 236 -347 637
-348 667 0 4 166 7 370 7 l370 0 2 1595 3 1595 813 -735 c447 -404 816 -735
820 -735 4 0 369 331 811 735 442 404 808 735 813 735 4 0 8 -718 8 -1595 l0
-1595 820 0 820 0 0 3120 0 3120 -370 0 -369 0 -1268 -1155 -1267 -1155 -35
34 c-20 19 -565 514 -1211 1101 -999 908 -1175 1071 -1173 1092 3 35 233 498
343 688 603 1047 1414 1908 2420 2570 1307 861 2876 1295 4425 1225z m7130
-4064 c541 -356 927 -760 1149 -1207 283 -568 308 -1181 74 -1857 -88 -257
-191 -474 -349 -737 -88 -147 -280 -427 -297 -433 -4 -1 -5 33 -1 75 32 329
36 994 9 1318 -87 1037 -327 1940 -756 2844 -35 74 -64 136 -64 138 0 8 89
-46 235 -141z m-15480 -3438 c0 -527 7 -644 56 -1033 97 -766 319 -1565 614
-2215 81 -178 86 -190 79 -190 -13 0 -203 138 -324 234 -145 116 -406 373
-504 496 -270 340 -430 688 -503 1095 -22 124 -25 524 -5 650 74 465 229 877
496 1318 50 81 90 147 90 147 1 0 1 -226 1 -502z"/>
<path d="M17380 16200 l0 -3120 820 0 820 0 0 3120 0 3120 -820 0 -820 0 0
-3120z"/>
</g>
</svg>
